<?xml version="1.0" encoding="utf-8"?>
<!-- Generator: Adobe Illustrator 23.0.0, SVG Export Plug-In . SVG Version: 6.00 Build 0)  -->
<svg version="1.1" id="Layer_5" xmlns="http://www.w3.org/2000/svg" xmlns:xlink="http://www.w3.org/1999/xlink" x="0px" y="0px"
	 viewBox="0 0 576 378" style="enable-background:new 0 0 576 378;" xml:space="preserve">
<style type="text/css">
	.st0{fill:none;stroke:#00FF00;stroke-width:2;stroke-linecap:round;stroke-linejoin:round;stroke-miterlimit:10;}
</style>
<g>
	<polygon class="st0" points="126.48,155.99 126.48,74.41 344.16,200.18 344.16,281.76 	"/>
	<polyline class="st0" points="126.48,74.41 235.32,11.53 452.99,137.29 344.16,200.18 	"/>
	<polyline class="st0" points="344.16,281.76 452.99,218.88 452.99,137.29 	"/>
	<path class="st0" d="M199.84,75.91c-8.2,4.31-21.26,4.31-29.02,0c-3.88-2.16-5.82-5.09-5.82-8.07c0-2.99,1.94-6.03,5.82-8.4
		c7.77-4.75,20.83-4.75,29.02,0S208.04,71.59,199.84,75.91z M164.99,67.99v10 M205.99,67.99v10 M164.99,77.83
		c0,2.99,1.94,5.92,5.82,8.07c7.77,4.31,20.83,4.31,29.02,0c4.03-2.12,6.07-4.98,6.15-7.92"/>
	<path class="st0" d="M253.84,47.91c-8.2,4.31-21.26,4.31-29.02,0c-3.88-2.16-5.82-5.09-5.82-8.07c0-2.99,1.94-6.03,5.82-8.4
		c7.77-4.75,20.83-4.75,29.02,0S262.04,43.59,253.84,47.91z M218.99,39.99v10 M259.99,39.99v10 M218.99,49.83
		c0,2.99,1.94,5.92,5.82,8.07c7.77,4.31,20.83,4.31,29.02,0c4.03-2.12,6.07-4.98,6.15-7.92"/>
	<path class="st0" d="M246.84,102.91c-8.2,4.31-21.26,4.31-29.02,0c-3.88-2.16-5.82-5.09-5.82-8.07c0-2.99,1.94-6.03,5.82-8.4
		c7.77-4.75,20.83-4.75,29.02,0C255.04,91.18,255.04,98.59,246.84,102.91z M211.99,94.99v10 M252.99,94.99v10 M211.99,104.83
		c0,2.99,1.94,5.92,5.82,8.07c7.77,4.31,20.83,4.31,29.02,0c4.03-2.12,6.07-4.98,6.15-7.92"/>
	<path class="st0" d="M301.84,75.91c-8.2,4.31-21.26,4.31-29.02,0c-3.88-2.16-5.82-5.09-5.82-8.07c0-2.99,1.94-6.03,5.82-8.4
		c7.77-4.75,20.83-4.75,29.02,0S310.04,71.59,301.84,75.91z M266.99,67.99v10 M307.99,67.99v10 M266.99,77.83
		c0,2.99,1.94,5.92,5.82,8.07c7.77,4.31,20.83,4.31,29.02,0c4.03-2.12,6.07-4.98,6.15-7.92"/>
	<path class="st0" d="M298.84,132.91c-8.2,4.31-21.26,4.31-29.02,0c-3.88-2.16-5.82-5.09-5.82-8.07c0-2.99,1.94-6.03,5.82-8.4
		c7.77-4.75,20.83-4.75,29.02,0C307.04,121.18,307.04,128.59,298.84,132.91z M263.99,124.99v10 M304.99,124.99v10 M263.99,134.83
		c0,2.99,1.94,5.92,5.82,8.07c7.77,4.31,20.83,4.31,29.02,0c4.03-2.12,6.07-4.98,6.15-7.92"/>
	<path class="st0" d="M354.84,106.91c-8.2,4.31-21.26,4.31-29.02,0c-3.88-2.16-5.82-5.09-5.82-8.07c0-2.99,1.94-6.03,5.82-8.4
		c7.77-4.75,20.83-4.75,29.02,0C363.04,95.18,363.04,102.59,354.84,106.91z M319.99,98.99v10 M360.99,98.99v10 M319.99,108.83
		c0,2.99,1.94,5.92,5.82,8.07c7.77,4.31,20.83,4.31,29.02,0c4.03-2.12,6.07-4.98,6.15-7.92"/>
	<path class="st0" d="M351.84,163.91c-8.2,4.31-21.26,4.31-29.02,0c-3.88-2.16-5.82-5.09-5.82-8.07c0-2.99,1.94-6.03,5.82-8.4
		c7.77-4.75,20.83-4.75,29.02,0S360.04,159.59,351.84,163.91z M316.99,155.99v10 M357.99,155.99v10 M316.99,165.83
		c0,2.99,1.94,5.92,5.82,8.07c7.77,4.31,20.83,4.31,29.02,0c4.03-2.12,6.07-4.98,6.15-7.92"/>
	<path class="st0" d="M402.84,134.91c-8.2,4.31-21.26,4.31-29.02,0c-3.88-2.16-5.82-5.09-5.82-8.07c0-2.99,1.94-6.03,5.82-8.4
		c7.77-4.75,20.83-4.75,29.02,0C411.04,123.18,411.04,130.59,402.84,134.91z M367.99,126.99v10 M408.99,126.99v10 M367.99,136.83
		c0,2.99,1.94,5.92,5.82,8.07c7.77,4.31,20.83,4.31,29.02,0c4.03-2.12,6.07-4.98,6.15-7.92"/>
</g>
<polyline class="st0" points="234.45,219.24 120.32,285.18 120.32,366.76 234.45,300.82 "/>
<polyline class="st0" points="126.42,155.89 11.48,222.29 120.32,285.18 "/>
<path class="st0" d="M126.42,155.89"/>
<polyline class="st0" points="120.32,366.76 11.48,303.88 11.48,222.29 "/>
<path class="st0" d="M162.15,204.44c8.2-4.75,21.26-4.75,29.02,0c3.88,2.37,5.82,5.41,5.82,8.4c0,2.99-1.94,5.92-5.82,8.07
	c-7.77,4.31-20.83,4.31-29.02,0C153.95,216.59,153.95,209.18,162.15,204.44z M196.99,222.99v-10 M155.99,222.99v-10 M156,222.99
	c0.07,2.93,2.12,5.8,6.15,7.92c8.2,4.31,21.26,4.31,29.02,0c3.88-2.16,5.82-5.09,5.82-8.07"/>
<path class="st0" d="M109.63,175.44c8.2-4.75,21.26-4.75,29.02,0c3.88,2.37,5.82,5.41,5.82,8.4c0,2.99-1.94,5.92-5.82,8.07
	c-7.77,4.31-20.83,4.31-29.02,0C101.44,187.59,101.44,180.18,109.63,175.44z M144.48,193.99v-10 M103.48,193.99v-10 M103.49,193.99
	c0.07,2.93,2.12,5.8,6.15,7.92c8.2,4.31,21.26,4.31,29.02,0c3.88-2.16,5.82-5.09,5.82-8.07"/>
<path class="st0" d="M112.63,232.44c8.2-4.75,21.26-4.75,29.02,0c3.88,2.37,5.82,5.41,5.82,8.4c0,2.99-1.94,5.92-5.82,8.07
	c-7.77,4.31-20.83,4.31-29.02,0C104.44,244.59,104.44,237.18,112.63,232.44z M147.48,250.99v-10 M106.48,250.99v-10 M106.49,250.99
	c0.07,2.93,2.12,5.8,6.15,7.92c8.2,4.31,21.26,4.31,29.02,0c3.88-2.16,5.82-5.09,5.82-8.07"/>
<path class="st0" d="M61.63,203.44c8.2-4.75,21.26-4.75,29.02,0c3.88,2.37,5.82,5.41,5.82,8.4c0,2.99-1.94,5.92-5.82,8.07
	c-7.77,4.31-20.83,4.31-29.02,0C53.44,215.59,53.44,208.18,61.63,203.44z M96.48,221.99v-10 M55.48,221.99v-10 M55.49,221.99
	c0.07,2.93,2.12,5.8,6.15,7.92c8.2,4.31,21.26,4.31,29.02,0c3.88-2.16,5.82-5.09,5.82-8.07"/>
<polygon class="st0" points="560.99,237.99 560.99,156.41 343.99,281.99 343.32,363.76 "/>
<path class="st0" d="M305.2,178.44"/>
<polyline class="st0" points="560.99,156.41 452.16,93.53 415.21,114.88 "/>
<polyline class="st0" points="343.32,363.76 234.48,300.88 234.48,219.29 "/>
<path class="st0" d="M487.63,141.44c8.2-4.75,21.26-4.75,29.02,0c3.88,2.37,5.82,5.41,5.82,8.4s-1.94,5.92-5.82,8.07
	c-7.77,4.31-20.83,4.31-29.02,0C479.44,153.59,479.44,146.18,487.63,141.44z M522.48,159.99v-10 M481.48,159.99v-10 M481.49,159.99
	c0.07,2.93,2.12,5.8,6.15,7.92c8.2,4.31,21.26,4.31,29.02,0c3.88-2.16,5.82-5.09,5.82-8.07"/>
<path class="st0" d="M427.53,122.55 M445.65,133.05 M427.53,122.55c-0.35-3.21,1.68-6.55,6.11-9.11c8.2-4.75,21.26-4.75,29.02,0
	c3.88,2.37,5.82,5.41,5.82,8.4c0,2.99-1.94,5.92-5.82,8.07c-4.54,2.52-10.88,3.57-17.01,3.14 M468.48,131.99v-10 M427.48,121.99
	 M452.99,142.85c3.58-0.45,6.95-1.43,9.66-2.94c3.88-2.16,5.82-5.09,5.82-8.07"/>
<path class="st0" d="M453,164.95c6.02-0.4,12.21,0.76,16.66,3.48c3.88,2.37,5.82,5.41,5.82,8.4c0,2.99-1.94,5.92-5.82,8.07
	c-4.45,2.47-10.64,3.53-16.66,3.17 M475.48,186.99v-10 M453,198.07c6.02,0.36,12.21-0.69,16.66-3.17c3.88-2.16,5.82-5.09,5.82-8.07"
	/>
</svg>
