<svg xmlns="http://www.w3.org/2000/svg" viewBox="0 0 1121 686" style=""><title>neonrainbow_noglow</title><g id="red"><path id="red_dark" data-name="red dark" d="M163.12,526c0-215.88,175-390.88,390.88-390.88S944.88,310.12,944.88,526" style="fill:none;stroke:red;stroke-linecap:round;stroke-miterlimit:10;stroke-width:24px" class="RvmdGtPM_0"></path><path id="red_lite" data-name="red lite" d="M163.12,526c0-215.88,175-390.88,390.88-390.88S944.88,310.12,944.88,526" style="fill:none;stroke:#ff7c84;stroke-linecap:round;stroke-miterlimit:10;stroke-width:9px" class="RvmdGtPM_1"></path></g><g id="orange"><path id="orange_dark" data-name="orange dark" d="M202.21,526c0-194.29,157.5-351.79,351.79-351.79S905.79,331.71,905.79,526" style="fill:none;stroke:#f15a24;stroke-linecap:round;stroke-miterlimit:10;stroke-width:24px" class="RvmdGtPM_2"></path><path id="orange_lite" data-name="orange lite" d="M202.21,526c0-194.29,157.5-351.79,351.79-351.79S905.79,331.71,905.79,526" style="fill:none;stroke:#f4d978;stroke-linecap:round;stroke-miterlimit:10;stroke-width:9px;opacity:0.8" class="RvmdGtPM_3"></path></g><g id="yellow"><path id="yellow_dark" data-name="yellow dark" d="M243,526c0-171.74,139.22-311,311-311S865,354.26,865,526" style="fill:none;stroke:#fcee21;stroke-linecap:round;stroke-miterlimit:10;stroke-width:24px" class="RvmdGtPM_4"></path><path id="yellow_lite" data-name="yellow lite" d="M243,526c0-171.74,139.22-311,311-311S865,354.26,865,526" style="fill:none;stroke:#fcffb0;stroke-linecap:round;stroke-miterlimit:10;stroke-width:9px" class="RvmdGtPM_5"></path></g><g id="green"><path id="green_dark" data-name="green dark" d="M284.31,526c0-148.94,120.75-269.69,269.69-269.69S823.69,377.06,823.69,526" style="fill:none;stroke:#8cc63f;stroke-linecap:round;stroke-miterlimit:10;stroke-width:24px" class="RvmdGtPM_6"></path><path id="green_lite" data-name="green lite" d="M284.31,526c0-148.94,120.75-269.69,269.69-269.69S823.69,377.06,823.69,526" style="fill:none;stroke:#c5fbaa;stroke-linecap:round;stroke-miterlimit:10;stroke-width:9px;opacity:0.8" class="RvmdGtPM_7"></path></g><g id="blue"><path id="blue_dark" data-name="blue dark" d="M325,526c0-126.46,102.52-229,229-229S783,399.54,783,526" style="fill:none;stroke:#3fa9f5;stroke-linecap:round;stroke-miterlimit:10;stroke-width:24px" class="RvmdGtPM_8"></path><path id="blue_lite" data-name="blue lite" d="M325,526c0-126.46,102.52-229,229-229S783,399.54,783,526" style="fill:none;stroke:#aff5fd;stroke-linecap:round;stroke-miterlimit:10;stroke-width:9px;opacity:0.8" class="RvmdGtPM_9"></path></g><g id="purple"><path id="purple_dark" data-name="purple dark" d="M364.41,526c0-104.71,84.88-189.59,189.59-189.59S743.59,421.29,743.59,526" style="fill:none;stroke:#9500ff;stroke-linecap:round;stroke-miterlimit:10;stroke-width:24px" class="RvmdGtPM_10"></path><path id="purple_lite" data-name="purple lite" d="M364.41,526c0-104.71,84.88-189.59,189.59-189.59S743.59,421.29,743.59,526" style="fill:none;stroke:#d994fd;stroke-linecap:round;stroke-miterlimit:10;stroke-width:9px;opacity:0.8" class="RvmdGtPM_11"></path></g><g id="pink"><path id="pink_dark" data-name="pink dark" d="M405.62,526a148.38,148.38,0,0,1,296.76,0" style="fill:none;stroke:#f0f;stroke-linecap:round;stroke-miterlimit:10;stroke-width:24px" class="RvmdGtPM_12"></path><path id="pink_lite" data-name="pink lite" d="M405.62,526a148.38,148.38,0,0,1,296.76,0" style="fill:none;stroke:#faaefc;stroke-linecap:round;stroke-miterlimit:10;stroke-width:9px;opacity:0.8" class="RvmdGtPM_13"></path></g><style data-made-with="vivus-instant">.RvmdGtPM_0{stroke-dasharray:1229 1231;stroke-dashoffset:1230;animation:RvmdGtPM_draw 620ms ease-in-out 0ms forwards;}.RvmdGtPM_1{stroke-dasharray:1229 1231;stroke-dashoffset:1230;animation:RvmdGtPM_draw 620ms ease-in-out 620ms forwards;}.RvmdGtPM_2{stroke-dasharray:1106 1108;stroke-dashoffset:1107;animation:RvmdGtPM_draw 558ms ease-in-out 1240ms forwards;}.RvmdGtPM_3{stroke-dasharray:1106 1108;stroke-dashoffset:1107;animation:RvmdGtPM_draw 558ms ease-in-out 1798ms forwards;}.RvmdGtPM_4{stroke-dasharray:978 980;stroke-dashoffset:979;animation:RvmdGtPM_draw 493ms ease-in-out 2356ms forwards;}.RvmdGtPM_5{stroke-dasharray:978 980;stroke-dashoffset:979;animation:RvmdGtPM_draw 493ms ease-in-out 2849ms forwards;}.RvmdGtPM_6{stroke-dasharray:848 850;stroke-dashoffset:849;animation:RvmdGtPM_draw 427ms ease-in-out 3343ms forwards;}.RvmdGtPM_7{stroke-dasharray:848 850;stroke-dashoffset:849;animation:RvmdGtPM_draw 427ms ease-in-out 3771ms forwards;}.RvmdGtPM_8{stroke-dasharray:720 722;stroke-dashoffset:721;animation:RvmdGtPM_draw 363ms ease-in-out 4199ms forwards;}.RvmdGtPM_9{stroke-dasharray:720 722;stroke-dashoffset:721;animation:RvmdGtPM_draw 363ms ease-in-out 4562ms forwards;}.RvmdGtPM_10{stroke-dasharray:596 598;stroke-dashoffset:597;animation:RvmdGtPM_draw 300ms ease-in-out 4926ms forwards;}.RvmdGtPM_11{stroke-dasharray:596 598;stroke-dashoffset:597;animation:RvmdGtPM_draw 300ms ease-in-out 5227ms forwards;}.RvmdGtPM_12{stroke-dasharray:467 469;stroke-dashoffset:468;animation:RvmdGtPM_draw 235ms ease-in-out 5528ms forwards;}.RvmdGtPM_13{stroke-dasharray:467 469;stroke-dashoffset:468;animation:RvmdGtPM_draw 235ms ease-in-out 5764ms forwards;}@keyframes RvmdGtPM_draw{100%{stroke-dashoffset:0;}}@keyframes RvmdGtPM_fade{0%{stroke-opacity:1;}96.07843137254902%{stroke-opacity:1;}100%{stroke-opacity:0;}}</style></svg>